<svg width="100%" viewBox="0 0 559 664" xmlns="http://www.w3.org/2000/svg" xmlns:xlink="http://www.w3.org/1999/xlink">
<g id="graph0" class="graph" transform="scale(1 1) rotate(0) translate(4 659.4)">

<polygon fill="#ffffff" stroke="transparent" points="-4,4 -4,-659.4 554.0627,-659.4 554.0627,4 -4,4"></polygon>
<text text-anchor="middle" x="275.0314" y="-637" font-family="Roboto Condensed, sans-serif" font-size="16.00" fill="#000000">egg-security</text>
<!-- egg&#45;security@2.6.1 -->
<g id="node1" class="node module-egg_security maintainer-atian25 maintainer-coolme200 maintainer-dead_horse maintainer-eggjs_admin maintainer-fengmk2 maintainer-hyj1991 maintainer-jtyjty99999 maintainer-killagu maintainer-ngot maintainer-popomore maintainer-shaoshuai0102 maintainer-thonatos maintainer-wanghx maintainer-xadillax license-mit">

<path fill="none" stroke="#000000" d="M86.2751,-305.3011C86.2751,-305.3011 6.219,-305.3011 6.219,-305.3011 2.9853,-305.3011 -.2484,-302.0674 -.2484,-298.8337 -.2484,-298.8337 -.2484,-292.3663 -.2484,-292.3663 -.2484,-289.1326 2.9853,-285.8989 6.219,-285.8989 6.219,-285.8989 86.2751,-285.8989 86.2751,-285.8989 89.5088,-285.8989 92.7425,-289.1326 92.7425,-292.3663 92.7425,-292.3663 92.7425,-298.8337 92.7425,-298.8337 92.7425,-302.0674 89.5088,-305.3011 86.2751,-305.3011"></path>
<text text-anchor="middle" x="46.2471" y="-292.3" font-family="Roboto Condensed, sans-serif" font-size="11.00" fill="#000000">egg-security@2.6.1</text>
</g>
<!-- csrf@3.1.0 -->
<g id="node2" class="node module-csrf maintainer-dougwilson maintainer-jongleberry license-mit">

<path fill="none" stroke="#000000" d="M209.749,-582.3011C209.749,-582.3011 168.4521,-582.3011 168.4521,-582.3011 165.2184,-582.3011 161.9847,-579.0674 161.9847,-575.8337 161.9847,-575.8337 161.9847,-569.3663 161.9847,-569.3663 161.9847,-566.1326 165.2184,-562.8989 168.4521,-562.8989 168.4521,-562.8989 209.749,-562.8989 209.749,-562.8989 212.9827,-562.8989 216.2164,-566.1326 216.2164,-569.3663 216.2164,-569.3663 216.2164,-575.8337 216.2164,-575.8337 216.2164,-579.0674 212.9827,-582.3011 209.749,-582.3011"></path>
<text text-anchor="middle" x="189.1006" y="-569.3" font-family="Roboto Condensed, sans-serif" font-size="11.00" fill="#000000">csrf@3.1.0</text>
</g>
<!-- egg&#45;security@2.6.1&#45;&gt;csrf@3.1.0 -->
<g id="edge1" class="edge">

<path fill="none" stroke="#000000" d="M47.1824,-305.4895C50.9763,-340.7417 68.0335,-462.1147 128.4941,-536.6 135.6984,-545.4754 145.7139,-552.6667 155.5301,-558.2213"></path>
<polygon fill="#000000" stroke="#000000" points="153.9195,-561.3287 164.4025,-562.8637 157.1648,-555.1265 153.9195,-561.3287"></polygon>
</g>
<!-- egg&#45;path&#45;matching@1.0.1 -->
<g id="node3" class="node module-egg_path_matching maintainer-fengmk2 maintainer-dead_horse license-mit">

<path fill="none" stroke="#000000" d="M243.3463,-527.3011C243.3463,-527.3011 134.8548,-527.3011 134.8548,-527.3011 131.6211,-527.3011 128.3875,-524.0674 128.3875,-520.8337 128.3875,-520.8337 128.3875,-514.3663 128.3875,-514.3663 128.3875,-511.1326 131.6211,-507.8989 134.8548,-507.8989 134.8548,-507.8989 243.3463,-507.8989 243.3463,-507.8989 246.58,-507.8989 249.8136,-511.1326 249.8136,-514.3663 249.8136,-514.3663 249.8136,-520.8337 249.8136,-520.8337 249.8136,-524.0674 246.58,-527.3011 243.3463,-527.3011"></path>
<text text-anchor="middle" x="189.1006" y="-514.3" font-family="Roboto Condensed, sans-serif" font-size="11.00" fill="#000000">egg-path-matching@1.0.1</text>
</g>
<!-- egg&#45;security@2.6.1&#45;&gt;egg&#45;path&#45;matching@1.0.1 -->
<g id="edge2" class="edge">

<path fill="none" stroke="#000000" d="M47.2268,-305.3705C51.0287,-338.015 67.7612,-444.3534 128.4941,-499.6 129.778,-500.7679 131.1345,-501.8602 132.5497,-502.8818"></path>
<polygon fill="#000000" stroke="#000000" points="130.8113,-505.9199 141.2012,-507.9934 134.3721,-499.8932 130.8113,-505.9199"></polygon>
</g>
<!-- extend@3.0.2 -->
<g id="node4" class="node module-extend maintainer-justmoon maintainer-ljharb license-mit">

<path fill="none" stroke="#000000" d="M216.5873,-490.3011C216.5873,-490.3011 161.6138,-490.3011 161.6138,-490.3011 158.3801,-490.3011 155.1464,-487.0674 155.1464,-483.8337 155.1464,-483.8337 155.1464,-477.3663 155.1464,-477.3663 155.1464,-474.1326 158.3801,-470.8989 161.6138,-470.8989 161.6138,-470.8989 216.5873,-470.8989 216.5873,-470.8989 219.821,-470.8989 223.0547,-474.1326 223.0547,-477.3663 223.0547,-477.3663 223.0547,-483.8337 223.0547,-483.8337 223.0547,-487.0674 219.821,-490.3011 216.5873,-490.3011"></path>
<text text-anchor="middle" x="189.1006" y="-477.3" font-family="Roboto Condensed, sans-serif" font-size="11.00" fill="#000000">extend@3.0.2</text>
</g>
<!-- egg&#45;security@2.6.1&#45;&gt;extend@3.0.2 -->
<g id="edge3" class="edge">

<path fill="none" stroke="#000000" d="M48.2353,-305.5986C54.5089,-334.4934 76.626,-418.8292 128.4941,-462.6 133.4485,-466.781 139.3428,-469.9909 145.4796,-472.4552"></path>
<polygon fill="#000000" stroke="#000000" points="144.6283,-475.8619 155.2225,-475.7464 146.8687,-469.23 144.6283,-475.8619"></polygon>
</g>
<!-- delegates@1.0.0 -->
<g id="node5" class="node module-delegates maintainer-tjholowaychuk maintainer-dominicbarnes license-mit">

<path fill="none" stroke="#000000" d="M222.1864,-453.3011C222.1864,-453.3011 156.0147,-453.3011 156.0147,-453.3011 152.781,-453.3011 149.5473,-450.0674 149.5473,-446.8337 149.5473,-446.8337 149.5473,-440.3663 149.5473,-440.3663 149.5473,-437.1326 152.781,-433.8989 156.0147,-433.8989 156.0147,-433.8989 222.1864,-433.8989 222.1864,-433.8989 225.4201,-433.8989 228.6538,-437.1326 228.6538,-440.3663 228.6538,-440.3663 228.6538,-446.8337 228.6538,-446.8337 228.6538,-450.0674 225.4201,-453.3011 222.1864,-453.3011"></path>
<text text-anchor="middle" x="189.1006" y="-440.3" font-family="Roboto Condensed, sans-serif" font-size="11.00" fill="#000000">delegates@1.0.0</text>
</g>
<!-- egg&#45;security@2.6.1&#45;&gt;delegates@1.0.0 -->
<g id="edge4" class="edge">

<path fill="none" stroke="#000000" d="M49.6709,-305.4434C58.6155,-329.6944 85.0458,-392.7277 128.4941,-425.6 131.9407,-428.2076 135.7608,-430.4389 139.758,-432.348"></path>
<polygon fill="#000000" stroke="#000000" points="138.7325,-435.7095 149.3139,-436.2431 141.3747,-429.2273 138.7325,-435.7095"></polygon>
</g>
<!-- escape&#45;html@1.0.3 -->
<g id="node6" class="node module-escape_html maintainer-tjholowaychuk maintainer-dougwilson license-mit">

<path fill="none" stroke="#000000" d="M228.4056,-416.3011C228.4056,-416.3011 149.7955,-416.3011 149.7955,-416.3011 146.5618,-416.3011 143.3281,-413.0674 143.3281,-409.8337 143.3281,-409.8337 143.3281,-403.3663 143.3281,-403.3663 143.3281,-400.1326 146.5618,-396.8989 149.7955,-396.8989 149.7955,-396.8989 228.4056,-396.8989 228.4056,-396.8989 231.6393,-396.8989 234.873,-400.1326 234.873,-403.3663 234.873,-403.3663 234.873,-409.8337 234.873,-409.8337 234.873,-413.0674 231.6393,-416.3011 228.4056,-416.3011"></path>
<text text-anchor="middle" x="189.1006" y="-403.3" font-family="Roboto Condensed, sans-serif" font-size="11.00" fill="#000000">escape-html@1.0.3</text>
</g>
<!-- egg&#45;security@2.6.1&#45;&gt;escape&#45;html@1.0.3 -->
<g id="edge5" class="edge">

<path fill="none" stroke="#000000" d="M52.1791,-305.3662C64.1841,-324.3016 93.2381,-366.1167 128.4941,-388.6 130.9668,-390.1769 133.5835,-391.6207 136.2873,-392.942"></path>
<polygon fill="#000000" stroke="#000000" points="135.1616,-396.2671 145.7326,-396.9779 137.9122,-389.8301 135.1616,-396.2671"></polygon>
</g>
<!-- koa&#45;compose@4.1.0 -->
<g id="node7" class="node module-koa_compose maintainer-aheckmann maintainer-coderhaoxin maintainer-dead_horse maintainer-eivifj maintainer-fengmk2 maintainer-jongleberry maintainer-juliangruber maintainer-stephenmathieson maintainer-tejasmanohar maintainer-tjholowaychuk license-mit">

<path fill="none" stroke="#000000" d="M230.9087,-379.3011C230.9087,-379.3011 147.2924,-379.3011 147.2924,-379.3011 144.0587,-379.3011 140.825,-376.0674 140.825,-372.8337 140.825,-372.8337 140.825,-366.3663 140.825,-366.3663 140.825,-363.1326 144.0587,-359.8989 147.2924,-359.8989 147.2924,-359.8989 230.9087,-359.8989 230.9087,-359.8989 234.1424,-359.8989 237.3761,-363.1326 237.3761,-366.3663 237.3761,-366.3663 237.3761,-372.8337 237.3761,-372.8337 237.3761,-376.0674 234.1424,-379.3011 230.9087,-379.3011"></path>
<text text-anchor="middle" x="189.1006" y="-366.3" font-family="Roboto Condensed, sans-serif" font-size="11.00" fill="#000000">koa-compose@4.1.0</text>
</g>
<!-- egg&#45;security@2.6.1&#45;&gt;koa&#45;compose@4.1.0 -->
<g id="edge6" class="edge">

<path fill="none" stroke="#000000" d="M58.0641,-305.4009C73.4275,-317.7151 101.4969,-338.7833 128.4941,-351.6 132.2868,-353.4006 136.2991,-355.0649 140.3808,-356.5935"></path>
<polygon fill="#000000" stroke="#000000" points="139.3651,-359.9457 149.9599,-359.9143 141.658,-353.3318 139.3651,-359.9457"></polygon>
</g>
<!-- debug@4.1.1 -->
<g id="node8" class="node module-debug maintainer-qix maintainer-thebigredgeek maintainer-tjholowaychuk maintainer-tootallnate license-mit">

<path fill="none" stroke="#000000" d="M215.146,-342.3011C215.146,-342.3011 163.0551,-342.3011 163.0551,-342.3011 159.8214,-342.3011 156.5877,-339.0674 156.5877,-335.8337 156.5877,-335.8337 156.5877,-329.3663 156.5877,-329.3663 156.5877,-326.1326 159.8214,-322.8989 163.0551,-322.8989 163.0551,-322.8989 215.146,-322.8989 215.146,-322.8989 218.3797,-322.8989 221.6134,-326.1326 221.6134,-329.3663 221.6134,-329.3663 221.6134,-335.8337 221.6134,-335.8337 221.6134,-339.0674 218.3797,-342.3011 215.146,-342.3011"></path>
<text text-anchor="middle" x="189.1006" y="-329.3" font-family="Roboto Condensed, sans-serif" font-size="11.00" fill="#000000">debug@4.1.1</text>
</g>
<!-- egg&#45;security@2.6.1&#45;&gt;debug@4.1.1 -->
<g id="edge7" class="edge">

<path fill="none" stroke="#000000" d="M83.4072,-305.2247C102.7848,-310.2437 126.5722,-316.4047 146.6702,-321.6103"></path>
<polygon fill="#000000" stroke="#000000" points="145.9438,-325.0375 156.5019,-324.1567 147.699,-318.2611 145.9438,-325.0375"></polygon>
</g>
<!-- methods@1.1.2 -->
<g id="node13" class="node module-methods maintainer-tjholowaychuk maintainer-jonathanong maintainer-jongleberry maintainer-dougwilson license-mit">

<path fill="none" stroke="#000000" d="M220.5388,-305.3011C220.5388,-305.3011 157.6623,-305.3011 157.6623,-305.3011 154.4286,-305.3011 151.195,-302.0674 151.195,-298.8337 151.195,-298.8337 151.195,-292.3663 151.195,-292.3663 151.195,-289.1326 154.4286,-285.8989 157.6623,-285.8989 157.6623,-285.8989 220.5388,-285.8989 220.5388,-285.8989 223.7725,-285.8989 227.0061,-289.1326 227.0061,-292.3663 227.0061,-292.3663 227.0061,-298.8337 227.0061,-298.8337 227.0061,-302.0674 223.7725,-305.3011 220.5388,-305.3011"></path>
<text text-anchor="middle" x="189.1006" y="-292.3" font-family="Roboto Condensed, sans-serif" font-size="11.00" fill="#000000">methods@1.1.2</text>
</g>
<!-- egg&#45;security@2.6.1&#45;&gt;methods@1.1.2 -->
<g id="edge12" class="edge">

<path fill="none" stroke="#000000" d="M92.6275,-295.6C107.9845,-295.6 125.1101,-295.6 140.6205,-295.6"></path>
<polygon fill="#000000" stroke="#000000" points="141.0589,-299.1001 151.0588,-295.6 141.0588,-292.1001 141.0589,-299.1001"></polygon>
</g>
<!-- ip@1.1.5 -->
<g id="node14" class="node module-ip maintainer-bcbailey maintainer-fedor_indutny maintainer-indexzero maintainer-indutny maintainer-mmalecki license-mit">

<path fill="none" stroke="#000000" d="M205.821,-268.3011C205.821,-268.3011 172.3801,-268.3011 172.3801,-268.3011 169.1464,-268.3011 165.9127,-265.0674 165.9127,-261.8337 165.9127,-261.8337 165.9127,-255.3663 165.9127,-255.3663 165.9127,-252.1326 169.1464,-248.8989 172.3801,-248.8989 172.3801,-248.8989 205.821,-248.8989 205.821,-248.8989 209.0547,-248.8989 212.2884,-252.1326 212.2884,-255.3663 212.2884,-255.3663 212.2884,-261.8337 212.2884,-261.8337 212.2884,-265.0674 209.0547,-268.3011 205.821,-268.3011"></path>
<text text-anchor="middle" x="189.1006" y="-255.3" font-family="Roboto Condensed, sans-serif" font-size="11.00" fill="#000000">ip@1.1.5</text>
</g>
<!-- egg&#45;security@2.6.1&#45;&gt;ip@1.1.5 -->
<g id="edge13" class="edge">

<path fill="none" stroke="#000000" d="M83.4072,-285.9753C105.8165,-280.1711 134.1232,-272.8395 155.8014,-267.2247"></path>
<polygon fill="#000000" stroke="#000000" points="156.7495,-270.5947 165.5525,-264.6991 154.9943,-263.8183 156.7495,-270.5947"></polygon>
</g>
<!-- platform@1.3.5 -->
<g id="node15" class="node module-platform maintainer-jdalton maintainer-mathias maintainer-d10 license-mit">

<path fill="none" stroke="#000000" d="M220.6405,-231.3011C220.6405,-231.3011 157.5606,-231.3011 157.5606,-231.3011 154.3269,-231.3011 151.0932,-228.0674 151.0932,-224.8337 151.0932,-224.8337 151.0932,-218.3663 151.0932,-218.3663 151.0932,-215.1326 154.3269,-211.8989 157.5606,-211.8989 157.5606,-211.8989 220.6405,-211.8989 220.6405,-211.8989 223.8742,-211.8989 227.1079,-215.1326 227.1079,-218.3663 227.1079,-218.3663 227.1079,-224.8337 227.1079,-224.8337 227.1079,-228.0674 223.8742,-231.3011 220.6405,-231.3011"></path>
<text text-anchor="middle" x="189.1006" y="-218.3" font-family="Roboto Condensed, sans-serif" font-size="11.00" fill="#000000">platform@1.3.5</text>
</g>
<!-- egg&#45;security@2.6.1&#45;&gt;platform@1.3.5 -->
<g id="edge14" class="edge">

<path fill="none" stroke="#000000" d="M58.0641,-285.7991C73.4275,-273.4849 101.4969,-252.4167 128.4941,-239.6 132.5641,-237.6678 136.8871,-235.8924 141.2773,-234.2733"></path>
<polygon fill="#000000" stroke="#000000" points="142.5917,-237.523 150.9233,-230.9781 140.3288,-230.8988 142.5917,-237.523"></polygon>
</g>
<!-- matcher@1.1.1 -->
<g id="node16" class="node module-matcher maintainer-sindresorhus license-mit">

<path fill="none" stroke="#000000" d="M219.1888,-194.3011C219.1888,-194.3011 159.0123,-194.3011 159.0123,-194.3011 155.7786,-194.3011 152.5449,-191.0674 152.5449,-187.8337 152.5449,-187.8337 152.5449,-181.3663 152.5449,-181.3663 152.5449,-178.1326 155.7786,-174.8989 159.0123,-174.8989 159.0123,-174.8989 219.1888,-174.8989 219.1888,-174.8989 222.4225,-174.8989 225.6562,-178.1326 225.6562,-181.3663 225.6562,-181.3663 225.6562,-187.8337 225.6562,-187.8337 225.6562,-191.0674 222.4225,-194.3011 219.1888,-194.3011"></path>
<text text-anchor="middle" x="189.1006" y="-181.3" font-family="Roboto Condensed, sans-serif" font-size="11.00" fill="#000000">matcher@1.1.1</text>
</g>
<!-- egg&#45;security@2.6.1&#45;&gt;matcher@1.1.1 -->
<g id="edge15" class="edge">

<path fill="none" stroke="#000000" d="M52.1791,-285.8338C64.1841,-266.8984 93.2381,-225.0833 128.4941,-202.6 132.8929,-199.7948 137.7475,-197.4108 142.7371,-195.3882"></path>
<polygon fill="#000000" stroke="#000000" points="144.1762,-198.5908 152.4142,-191.9286 141.8196,-191.9994 144.1762,-198.5908"></polygon>
</g>
<!-- statuses@1.5.0 -->
<g id="node17" class="node module-statuses maintainer-defunctzombie maintainer-dougwilson maintainer-fishrock123 maintainer-jongleberry maintainer-mscdex maintainer-tjholowaychuk license-mit">

<path fill="none" stroke="#000000" d="M218.9772,-157.3011C218.9772,-157.3011 159.2239,-157.3011 159.2239,-157.3011 155.9902,-157.3011 152.7565,-154.0674 152.7565,-150.8337 152.7565,-150.8337 152.7565,-144.3663 152.7565,-144.3663 152.7565,-141.1326 155.9902,-137.8989 159.2239,-137.8989 159.2239,-137.8989 218.9772,-137.8989 218.9772,-137.8989 222.2109,-137.8989 225.4446,-141.1326 225.4446,-144.3663 225.4446,-144.3663 225.4446,-150.8337 225.4446,-150.8337 225.4446,-154.0674 222.2109,-157.3011 218.9772,-157.3011"></path>
<text text-anchor="middle" x="189.1006" y="-144.3" font-family="Roboto Condensed, sans-serif" font-size="11.00" fill="#000000">statuses@1.5.0</text>
</g>
<!-- egg&#45;security@2.6.1&#45;&gt;statuses@1.5.0 -->
<g id="edge16" class="edge">

<path fill="none" stroke="#000000" d="M49.6709,-285.7566C58.6155,-261.5056 85.0458,-198.4723 128.4941,-165.6 132.9254,-162.2473 137.9742,-159.5168 143.223,-157.2933"></path>
<polygon fill="#000000" stroke="#000000" points="144.5935,-160.5193 152.7966,-153.8141 142.2025,-153.9403 144.5935,-160.5193"></polygon>
</g>
<!-- type&#45;is@1.6.18 -->
<g id="node18" class="node module-type_is maintainer-dougwilson maintainer-jongleberry license-mit">

<path fill="none" stroke="#000000" d="M219.2009,-120.3011C219.2009,-120.3011 159.0002,-120.3011 159.0002,-120.3011 155.7666,-120.3011 152.5329,-117.0674 152.5329,-113.8337 152.5329,-113.8337 152.5329,-107.3663 152.5329,-107.3663 152.5329,-104.1326 155.7666,-100.8989 159.0002,-100.8989 159.0002,-100.8989 219.2009,-100.8989 219.2009,-100.8989 222.4345,-100.8989 225.6682,-104.1326 225.6682,-107.3663 225.6682,-107.3663 225.6682,-113.8337 225.6682,-113.8337 225.6682,-117.0674 222.4345,-120.3011 219.2009,-120.3011"></path>
<text text-anchor="middle" x="189.1006" y="-107.3" font-family="Roboto Condensed, sans-serif" font-size="11.00" fill="#000000">type-is@1.6.18</text>
</g>
<!-- egg&#45;security@2.6.1&#45;&gt;type&#45;is@1.6.18 -->
<g id="edge17" class="edge">

<path fill="none" stroke="#000000" d="M48.2353,-285.6014C54.5089,-256.7066 76.626,-172.3708 128.4941,-128.6 132.7408,-125.0163 137.6779,-122.1461 142.8665,-119.8473"></path>
<polygon fill="#000000" stroke="#000000" points="144.2374,-123.0715 152.3824,-116.2959 141.7898,-116.5133 144.2374,-123.0715"></polygon>
</g>
<!-- nanoid@2.1.1 -->
<g id="node19" class="node module-nanoid maintainer-ai license-mit">

<path fill="none" stroke="#000000" d="M216.7029,-83.3011C216.7029,-83.3011 161.4982,-83.3011 161.4982,-83.3011 158.2645,-83.3011 155.0308,-80.0674 155.0308,-76.8337 155.0308,-76.8337 155.0308,-70.3663 155.0308,-70.3663 155.0308,-67.1326 158.2645,-63.8989 161.4982,-63.8989 161.4982,-63.8989 216.7029,-63.8989 216.7029,-63.8989 219.9366,-63.8989 223.1703,-67.1326 223.1703,-70.3663 223.1703,-70.3663 223.1703,-76.8337 223.1703,-76.8337 223.1703,-80.0674 219.9366,-83.3011 216.7029,-83.3011"></path>
<text text-anchor="middle" x="189.1006" y="-70.3" font-family="Roboto Condensed, sans-serif" font-size="11.00" fill="#000000">nanoid@2.1.1</text>
</g>
<!-- egg&#45;security@2.6.1&#45;&gt;nanoid@2.1.1 -->
<g id="edge18" class="edge">

<path fill="none" stroke="#000000" d="M47.2268,-285.8295C51.0287,-253.185 67.7612,-146.8466 128.4941,-91.6 133.2896,-87.2377 139.0984,-83.9301 145.1975,-81.4229"></path>
<polygon fill="#000000" stroke="#000000" points="146.584,-84.6479 154.9171,-78.105 144.3226,-78.0233 146.584,-84.6479"></polygon>
</g>
<!-- xss@1.0.6 -->
<g id="node20" class="node module-xss maintainer-leizongmin license-mit">

<path fill="none" stroke="#000000" d="M208.8192,-46.3011C208.8192,-46.3011 169.3819,-46.3011 169.3819,-46.3011 166.1482,-46.3011 162.9145,-43.0674 162.9145,-39.8337 162.9145,-39.8337 162.9145,-33.3663 162.9145,-33.3663 162.9145,-30.1326 166.1482,-26.8989 169.3819,-26.8989 169.3819,-26.8989 208.8192,-26.8989 208.8192,-26.8989 212.0529,-26.8989 215.2866,-30.1326 215.2866,-33.3663 215.2866,-33.3663 215.2866,-39.8337 215.2866,-39.8337 215.2866,-43.0674 212.0529,-46.3011 208.8192,-46.3011"></path>
<text text-anchor="middle" x="189.1006" y="-33.3" font-family="Roboto Condensed, sans-serif" font-size="11.00" fill="#000000">xss@1.0.6</text>
</g>
<!-- egg&#45;security@2.6.1&#45;&gt;xss@1.0.6 -->
<g id="edge19" class="edge">

<path fill="none" stroke="#000000" d="M46.5514,-285.6594C48.2179,-249.1845 58.9899,-121.3662 128.4941,-54.6 135.1655,-48.1914 144.0132,-44.0515 152.8811,-41.3811"></path>
<polygon fill="#000000" stroke="#000000" points="153.9104,-44.7324 162.7869,-38.948 152.2406,-37.9345 153.9104,-44.7324"></polygon>
</g>
<!-- uid&#45;safe@2.1.5 -->
<g id="node9" class="node module-uid_safe maintainer-dougwilson maintainer-fishrock123 maintainer-jongleberry license-mit">

<path fill="none" stroke="#000000" d="M380.6675,-628.3011C380.6675,-628.3011 320.491,-628.3011 320.491,-628.3011 317.2573,-628.3011 314.0236,-625.0674 314.0236,-621.8337 314.0236,-621.8337 314.0236,-615.3663 314.0236,-615.3663 314.0236,-612.1326 317.2573,-608.8989 320.491,-608.8989 320.491,-608.8989 380.6675,-608.8989 380.6675,-608.8989 383.9012,-608.8989 387.1349,-612.1326 387.1349,-615.3663 387.1349,-615.3663 387.1349,-621.8337 387.1349,-621.8337 387.1349,-625.0674 383.9012,-628.3011 380.6675,-628.3011"></path>
<text text-anchor="middle" x="350.5793" y="-615.3" font-family="Roboto Condensed, sans-serif" font-size="11.00" fill="#000000">uid-safe@2.1.5</text>
</g>
<!-- csrf@3.1.0&#45;&gt;uid&#45;safe@2.1.5 -->
<g id="edge8" class="edge">

<path fill="none" stroke="#000000" d="M216.5598,-580.6493C235.8814,-586.291 262.3557,-593.9766 285.707,-600.6 292.2042,-602.4429 299.0733,-604.3708 305.8155,-606.2516"></path>
<polygon fill="#000000" stroke="#000000" points="304.9723,-609.6499 315.5445,-608.958 306.8484,-602.906 304.9723,-609.6499"></polygon>
</g>
<!-- tsscmp@1.0.6 -->
<g id="node10" class="node module-tsscmp maintainer-suryagh license-mit">

<path fill="none" stroke="#000000" d="M378.295,-591.3011C378.295,-591.3011 322.8635,-591.3011 322.8635,-591.3011 319.6298,-591.3011 316.3961,-588.0674 316.3961,-584.8337 316.3961,-584.8337 316.3961,-578.3663 316.3961,-578.3663 316.3961,-575.1326 319.6298,-571.8989 322.8635,-571.8989 322.8635,-571.8989 378.295,-571.8989 378.295,-571.8989 381.5287,-571.8989 384.7624,-575.1326 384.7624,-578.3663 384.7624,-578.3663 384.7624,-584.8337 384.7624,-584.8337 384.7624,-588.0674 381.5287,-591.3011 378.295,-591.3011"></path>
<text text-anchor="middle" x="350.5793" y="-578.3" font-family="Roboto Condensed, sans-serif" font-size="11.00" fill="#000000">tsscmp@1.0.6</text>
</g>
<!-- csrf@3.1.0&#45;&gt;tsscmp@1.0.6 -->
<g id="edge9" class="edge">

<path fill="none" stroke="#000000" d="M216.4932,-574.1267C241.016,-575.4935 277.4231,-577.5226 306.1146,-579.1218"></path>
<polygon fill="#000000" stroke="#000000" points="306.1205,-582.6274 316.2998,-579.6894 306.5101,-575.6383 306.1205,-582.6274"></polygon>
</g>
<!-- rndm@1.2.0 -->
<g id="node11" class="node module-rndm maintainer-coderhaoxin maintainer-dougwilson maintainer-fishrock123 maintainer-jongleberry license-mit">

<path fill="none" stroke="#000000" d="M374.9616,-554.3011C374.9616,-554.3011 326.1969,-554.3011 326.1969,-554.3011 322.9632,-554.3011 319.7296,-551.0674 319.7296,-547.8337 319.7296,-547.8337 319.7296,-541.3663 319.7296,-541.3663 319.7296,-538.1326 322.9632,-534.8989 326.1969,-534.8989 326.1969,-534.8989 374.9616,-534.8989 374.9616,-534.8989 378.1953,-534.8989 381.4289,-538.1326 381.4289,-541.3663 381.4289,-541.3663 381.4289,-547.8337 381.4289,-547.8337 381.4289,-551.0674 378.1953,-554.3011 374.9616,-554.3011"></path>
<text text-anchor="middle" x="350.5793" y="-541.3" font-family="Roboto Condensed, sans-serif" font-size="11.00" fill="#000000">rndm@1.2.0</text>
</g>
<!-- csrf@3.1.0&#45;&gt;rndm@1.2.0 -->
<g id="edge10" class="edge">

<path fill="none" stroke="#000000" d="M216.4932,-567.8502C242.0895,-563.4119 280.6332,-556.7285 309.8364,-551.6647"></path>
<polygon fill="#000000" stroke="#000000" points="310.4849,-555.1046 319.7399,-549.9475 309.2889,-548.2075 310.4849,-555.1046"></polygon>
</g>
<!-- path&#45;to&#45;regexp@1.7.0 -->
<g id="node12" class="node module-path_to_regexp maintainer-amasad maintainer-anthonyshort maintainer-blakeembrey maintainer-calvinfo maintainer-clintwood maintainer-coreh maintainer-cristiandouce maintainer-defunctzombie maintainer-dfcreative maintainer-dominicbarnes maintainer-dougwilson maintainer-forbeslindesay maintainer-ianstormtaylor maintainer-jonathanong maintainer-jongleberry maintainer-juliangruber maintainer-kelonye maintainer-mattmueller maintainer-nami_doc maintainer-queckezz maintainer-rauchg maintainer-retrofox maintainer-stagas maintainer-stephenmathieson maintainer-swatinem maintainer-thehydroimpulse maintainer-timaschew maintainer-timoxley maintainer-tjholowaychuk maintainer-tootallnate maintainer-trevorgerhardt maintainer-yields license-mit">

<path fill="none" stroke="#000000" d="M395.4901,-517.3011C395.4901,-517.3011 305.6684,-517.3011 305.6684,-517.3011 302.4348,-517.3011 299.2011,-514.0674 299.2011,-510.8337 299.2011,-510.8337 299.2011,-504.3663 299.2011,-504.3663 299.2011,-501.1326 302.4348,-497.8989 305.6684,-497.8989 305.6684,-497.8989 395.4901,-497.8989 395.4901,-497.8989 398.7237,-497.8989 401.9574,-501.1326 401.9574,-504.3663 401.9574,-504.3663 401.9574,-510.8337 401.9574,-510.8337 401.9574,-514.0674 398.7237,-517.3011 395.4901,-517.3011"></path>
<text text-anchor="middle" x="350.5793" y="-504.3" font-family="Roboto Condensed, sans-serif" font-size="11.00" fill="#000000">path-to-regexp@1.7.0</text>
</g>
<!-- egg&#45;path&#45;matching@1.0.1&#45;&gt;path&#45;to&#45;regexp@1.7.0 -->
<g id="edge11" class="edge">

<path fill="none" stroke="#000000" d="M250.1487,-513.8194C262.9043,-513.0295 276.3583,-512.1963 289.1284,-511.4055"></path>
<polygon fill="#000000" stroke="#000000" points="289.4323,-514.8935 299.1969,-510.782 288.9996,-507.9069 289.4323,-514.8935"></polygon>
</g>
<!-- ms@2.1.2 -->
<g id="node25" class="node module-ms maintainer-alexaltea maintainer-anatrajkovska maintainer-andybitz maintainer-arunoda maintainer-arzafran maintainer-atcastle maintainer-b3nnyl maintainer-caarlos0 maintainer-codetheory maintainer-coetry maintainer-dav_is maintainer-fivepointseven maintainer-guybedford maintainer-hharnisc maintainer-huvik maintainer-iamevilrabbit maintainer-igorklopov maintainer-ijjk maintainer-janicklas_ralph maintainer-javivelasco maintainer-joecohens maintainer-juancampa maintainer-leo maintainer-lfades maintainer-lucleray maintainer-manovotny maintainer-marcosnils maintainer-matheuss maintainer-mfix22 maintainer-mglagola maintainer-msweeneydev maintainer-nkzawa maintainer-olliv maintainer-paco maintainer-paulogdm maintainer-quietshu maintainer-rabaut maintainer-ragojose maintainer-rauchg maintainer-sarupbanskota maintainer-skllcrn maintainer-sophearak maintainer-styfle maintainer-timer maintainer-timneutkens maintainer-tootallnate maintainer-umegaya maintainer-williamli maintainer-zeit_bot license-mit">

<path fill="none" stroke="#000000" d="M369.5766,-342.3011C369.5766,-342.3011 331.5819,-342.3011 331.5819,-342.3011 328.3482,-342.3011 325.1145,-339.0674 325.1145,-335.8337 325.1145,-335.8337 325.1145,-329.3663 325.1145,-329.3663 325.1145,-326.1326 328.3482,-322.8989 331.5819,-322.8989 331.5819,-322.8989 369.5766,-322.8989 369.5766,-322.8989 372.8103,-322.8989 376.044,-326.1326 376.044,-329.3663 376.044,-329.3663 376.044,-335.8337 376.044,-335.8337 376.044,-339.0674 372.8103,-342.3011 369.5766,-342.3011"></path>
<text text-anchor="middle" x="350.5793" y="-329.3" font-family="Roboto Condensed, sans-serif" font-size="11.00" fill="#000000">ms@2.1.2</text>
</g>
<!-- debug@4.1.1&#45;&gt;ms@2.1.2 -->
<g id="edge24" class="edge">

<path fill="none" stroke="#000000" d="M221.7782,-332.6C248.8267,-332.6 287.1901,-332.6 315.0073,-332.6"></path>
<polygon fill="#000000" stroke="#000000" points="315.1067,-336.1001 325.1066,-332.6 315.1066,-329.1001 315.1067,-336.1001"></polygon>
</g>
<!-- random&#45;bytes@1.0.0 -->
<g id="node22" class="node module-random_bytes maintainer-dougwilson license-mit">

<path fill="none" stroke="#000000" d="M543.4017,-628.3011C543.4017,-628.3011 458.1125,-628.3011 458.1125,-628.3011 454.8788,-628.3011 451.6451,-625.0674 451.6451,-621.8337 451.6451,-621.8337 451.6451,-615.3663 451.6451,-615.3663 451.6451,-612.1326 454.8788,-608.8989 458.1125,-608.8989 458.1125,-608.8989 543.4017,-608.8989 543.4017,-608.8989 546.6354,-608.8989 549.8691,-612.1326 549.8691,-615.3663 549.8691,-615.3663 549.8691,-621.8337 549.8691,-621.8337 549.8691,-625.0674 546.6354,-628.3011 543.4017,-628.3011"></path>
<text text-anchor="middle" x="500.7571" y="-615.3" font-family="Roboto Condensed, sans-serif" font-size="11.00" fill="#000000">random-bytes@1.0.0</text>
</g>
<!-- uid&#45;safe@2.1.5&#45;&gt;random&#45;bytes@1.0.0 -->
<g id="edge21" class="edge">

<path fill="none" stroke="#000000" d="M387.3169,-618.6C403.6556,-618.6 423.3058,-618.6 441.627,-618.6"></path>
<polygon fill="#000000" stroke="#000000" points="441.6393,-622.1001 451.6393,-618.6 441.6392,-615.1001 441.6393,-622.1001"></polygon>
</g>
<!-- isarray@0.0.1 -->
<g id="node21" class="node module-isarray maintainer-juliangruber license-mit">

<path fill="none" stroke="#000000" d="M528.3441,-517.3011C528.3441,-517.3011 473.1701,-517.3011 473.1701,-517.3011 469.9365,-517.3011 466.7028,-514.0674 466.7028,-510.8337 466.7028,-510.8337 466.7028,-504.3663 466.7028,-504.3663 466.7028,-501.1326 469.9365,-497.8989 473.1701,-497.8989 473.1701,-497.8989 528.3441,-497.8989 528.3441,-497.8989 531.5777,-497.8989 534.8114,-501.1326 534.8114,-504.3663 534.8114,-504.3663 534.8114,-510.8337 534.8114,-510.8337 534.8114,-514.0674 531.5777,-517.3011 528.3441,-517.3011"></path>
<text text-anchor="middle" x="500.7571" y="-504.3" font-family="Roboto Condensed, sans-serif" font-size="11.00" fill="#000000">isarray@0.0.1</text>
</g>
<!-- path&#45;to&#45;regexp@1.7.0&#45;&gt;isarray@0.0.1 -->
<g id="edge20" class="edge">

<path fill="none" stroke="#000000" d="M402.2619,-507.6C419.8277,-507.6 439.2922,-507.6 456.2479,-507.6"></path>
<polygon fill="#000000" stroke="#000000" points="456.4416,-511.1001 466.4415,-507.6 456.4415,-504.1001 456.4416,-511.1001"></polygon>
</g>
<!-- escape&#45;string&#45;regexp@1.0.5 -->
<g id="node24" class="node module-escape_string_regexp maintainer-sindresorhus maintainer-jbnicolai license-mit">

<path fill="none" stroke="#000000" d="M408.8566,-194.3011C408.8566,-194.3011 292.3019,-194.3011 292.3019,-194.3011 289.0682,-194.3011 285.8345,-191.0674 285.8345,-187.8337 285.8345,-187.8337 285.8345,-181.3663 285.8345,-181.3663 285.8345,-178.1326 289.0682,-174.8989 292.3019,-174.8989 292.3019,-174.8989 408.8566,-174.8989 408.8566,-174.8989 412.0903,-174.8989 415.324,-178.1326 415.324,-181.3663 415.324,-181.3663 415.324,-187.8337 415.324,-187.8337 415.324,-191.0674 412.0903,-194.3011 408.8566,-194.3011"></path>
<text text-anchor="middle" x="350.5793" y="-181.3" font-family="Roboto Condensed, sans-serif" font-size="11.00" fill="#000000">escape-string-regexp@1.0.5</text>
</g>
<!-- matcher@1.1.1&#45;&gt;escape&#45;string&#45;regexp@1.0.5 -->
<g id="edge23" class="edge">

<path fill="none" stroke="#000000" d="M225.7426,-184.6C240.522,-184.6 258.145,-184.6 275.4253,-184.6"></path>
<polygon fill="#000000" stroke="#000000" points="275.536,-188.1001 285.5359,-184.6 275.5359,-181.1001 275.536,-188.1001"></polygon>
</g>
<!-- media&#45;typer@0.3.0 -->
<g id="node23" class="node module-media_typer maintainer-dougwilson license-mit">

<path fill="none" stroke="#000000" d="M389.8854,-148.3011C389.8854,-148.3011 311.2731,-148.3011 311.2731,-148.3011 308.0394,-148.3011 304.8057,-145.0674 304.8057,-141.8337 304.8057,-141.8337 304.8057,-135.3663 304.8057,-135.3663 304.8057,-132.1326 308.0394,-128.8989 311.2731,-128.8989 311.2731,-128.8989 389.8854,-128.8989 389.8854,-128.8989 393.1191,-128.8989 396.3528,-132.1326 396.3528,-135.3663 396.3528,-135.3663 396.3528,-141.8337 396.3528,-141.8337 396.3528,-145.0674 393.1191,-148.3011 389.8854,-148.3011"></path>
<text text-anchor="middle" x="350.5793" y="-135.3" font-family="Roboto Condensed, sans-serif" font-size="11.00" fill="#000000">media-typer@0.3.0</text>
</g>
<!-- type&#45;is@1.6.18&#45;&gt;media&#45;typer@0.3.0 -->
<g id="edge22" class="edge">

<path fill="none" stroke="#000000" d="M225.7426,-116.9536C246.1691,-120.4955 272.0276,-124.9793 294.9055,-128.9463"></path>
<polygon fill="#000000" stroke="#000000" points="294.388,-132.4087 304.8389,-130.6687 295.584,-125.5116 294.388,-132.4087"></polygon>
</g>
<!-- mime&#45;types@2.1.24 -->
<g id="node26" class="node module-mime_types maintainer-dougwilson maintainer-fishrock123 maintainer-jongleberry license-mit">

<path fill="none" stroke="#000000" d="M391.676,-111.3011C391.676,-111.3011 309.4825,-111.3011 309.4825,-111.3011 306.2488,-111.3011 303.0152,-108.0674 303.0152,-104.8337 303.0152,-104.8337 303.0152,-98.3663 303.0152,-98.3663 303.0152,-95.1326 306.2488,-91.8989 309.4825,-91.8989 309.4825,-91.8989 391.676,-91.8989 391.676,-91.8989 394.9097,-91.8989 398.1433,-95.1326 398.1433,-98.3663 398.1433,-98.3663 398.1433,-104.8337 398.1433,-104.8337 398.1433,-108.0674 394.9097,-111.3011 391.676,-111.3011"></path>
<text text-anchor="middle" x="350.5793" y="-98.3" font-family="Roboto Condensed, sans-serif" font-size="11.00" fill="#000000">mime-types@2.1.24</text>
</g>
<!-- type&#45;is@1.6.18&#45;&gt;mime&#45;types@2.1.24 -->
<g id="edge25" class="edge">

<path fill="none" stroke="#000000" d="M225.7426,-108.5578C245.5126,-107.4559 270.3712,-106.0704 292.6908,-104.8264"></path>
<polygon fill="#000000" stroke="#000000" points="292.95,-108.3175 302.7397,-104.2663 292.5604,-101.3283 292.95,-108.3175"></polygon>
</g>
<!-- cssfilter@0.0.10 -->
<g id="node27" class="node module-cssfilter maintainer-leizongmin license-mit">

<path fill="none" stroke="#000000" d="M383.5592,-56.3011C383.5592,-56.3011 317.5993,-56.3011 317.5993,-56.3011 314.3657,-56.3011 311.132,-53.0674 311.132,-49.8337 311.132,-49.8337 311.132,-43.3663 311.132,-43.3663 311.132,-40.1326 314.3657,-36.8989 317.5993,-36.8989 317.5993,-36.8989 383.5592,-36.8989 383.5592,-36.8989 386.7928,-36.8989 390.0265,-40.1326 390.0265,-43.3663 390.0265,-43.3663 390.0265,-49.8337 390.0265,-49.8337 390.0265,-53.0674 386.7928,-56.3011 383.5592,-56.3011"></path>
<text text-anchor="middle" x="350.5793" y="-43.3" font-family="Roboto Condensed, sans-serif" font-size="11.00" fill="#000000">cssfilter@0.0.10</text>
</g>
<!-- xss@1.0.6&#45;&gt;cssfilter@0.0.10 -->
<g id="edge26" class="edge">

<path fill="none" stroke="#000000" d="M215.4043,-38.2289C238.5662,-39.6633 272.9156,-41.7905 301.1915,-43.5415"></path>
<polygon fill="#000000" stroke="#000000" points="301.1049,-47.0428 311.3021,-44.1677 301.5376,-40.0562 301.1049,-47.0428"></polygon>
</g>
<!-- commander@2.20.0 -->
<g id="node28" class="node module-commander maintainer-abetomo maintainer-somekittens maintainer-tjholowaychuk maintainer-vanesyan maintainer-zhiyelee license-mit">

<path fill="none" stroke="#000000" d="M391.6672,-19.3011C391.6672,-19.3011 309.4913,-19.3011 309.4913,-19.3011 306.2576,-19.3011 303.0239,-16.0674 303.0239,-12.8337 303.0239,-12.8337 303.0239,-6.3663 303.0239,-6.3663 303.0239,-3.1326 306.2576,.1011 309.4913,.1011 309.4913,.1011 391.6672,.1011 391.6672,.1011 394.9009,.1011 398.1346,-3.1326 398.1346,-6.3663 398.1346,-6.3663 398.1346,-12.8337 398.1346,-12.8337 398.1346,-16.0674 394.9009,-19.3011 391.6672,-19.3011"></path>
<text text-anchor="middle" x="350.5793" y="-6.3" font-family="Roboto Condensed, sans-serif" font-size="11.00" fill="#000000">commander@2.20.0</text>
</g>
<!-- xss@1.0.6&#45;&gt;commander@2.20.0 -->
<g id="edge27" class="edge">

<path fill="none" stroke="#000000" d="M215.4043,-32.2019C236.325,-28.7039 266.3729,-23.6797 292.8284,-19.2562"></path>
<polygon fill="#000000" stroke="#000000" points="293.4794,-22.696 302.7653,-17.5947 292.325,-15.7919 293.4794,-22.696"></polygon>
</g>
<!-- mime&#45;db@1.40.0 -->
<g id="node29" class="node module-mime_db maintainer-dougwilson maintainer-jongleberry license-mit">

<path fill="none" stroke="#000000" d="M536.1359,-111.3011C536.1359,-111.3011 465.3783,-111.3011 465.3783,-111.3011 462.1447,-111.3011 458.911,-108.0674 458.911,-104.8337 458.911,-104.8337 458.911,-98.3663 458.911,-98.3663 458.911,-95.1326 462.1447,-91.8989 465.3783,-91.8989 465.3783,-91.8989 536.1359,-91.8989 536.1359,-91.8989 539.3695,-91.8989 542.6032,-95.1326 542.6032,-98.3663 542.6032,-98.3663 542.6032,-104.8337 542.6032,-104.8337 542.6032,-108.0674 539.3695,-111.3011 536.1359,-111.3011"></path>
<text text-anchor="middle" x="500.7571" y="-98.3" font-family="Roboto Condensed, sans-serif" font-size="11.00" fill="#000000">mime-db@1.40.0</text>
</g>
<!-- mime&#45;types@2.1.24&#45;&gt;mime&#45;db@1.40.0 -->
<g id="edge28" class="edge">

<path fill="none" stroke="#000000" d="M398.5094,-101.6C414.4235,-101.6 432.2186,-101.6 448.446,-101.6"></path>
<polygon fill="#000000" stroke="#000000" points="448.8478,-105.1001 458.8478,-101.6 448.8477,-98.1001 448.8478,-105.1001"></polygon>
</g>
</g>
</svg>